/* XPM */
static char *_cb60245d890436cc79689d2bfc72285f1TcaLdK3vgcpgb3[] = {
/* columns rows colors chars-per-pixel */
"64 64 140 2 ",
"   c black",
".  c #010101",
"X  c #020202",
"o  c gray1",
"O  c #040404",
"+  c gray2",
"@  c #060606",
"#  c #070707",
"$  c gray3",
"%  c #090909",
"&  c gray4",
"*  c #0B0B0B",
"=  c #0C0C0C",
"-  c gray5",
";  c #0E0E0E",
":  c gray6",
">  c gray7",
",  c gray8",
"<  c #161616",
"1  c #181818",
"2  c #191919",
"3  c gray10",
"4  c #1B1B1B",
"5  c gray11",
"6  c #1D1D1D",
"7  c #1E1E1E",
"8  c gray12",
"9  c #202020",
"0  c #232323",
"q  c gray14",
"w  c #252525",
"e  c gray15",
"r  c #272727",
"t  c #282828",
"y  c #2A2A2A",
"u  c gray17",
"i  c #2D2D2D",
"p  c gray18",
"a  c #2F2F2F",
"s  c #313131",
"d  c #323232",
"f  c gray20",
"g  c #353535",
"h  c gray21",
"j  c #373737",
"k  c gray22",
"l  c #393939",
"z  c #3A3A3A",
"x  c gray23",
"c  c #3C3C3C",
"v  c gray24",
"b  c #3E3E3E",
"n  c #414141",
"m  c #444444",
"M  c gray27",
"N  c #464646",
"B  c #4B4B4B",
"V  c gray32",
"C  c gray33",
"Z  c #555555",
"A  c gray34",
"S  c #585858",
"D  c gray35",
"F  c #5A5A5A",
"G  c #5B5B5B",
"H  c gray36",
"J  c #5D5D5D",
"K  c gray37",
"L  c gray38",
"P  c #626262",
"I  c #676767",
"U  c gray44",
"Y  c gray47",
"T  c #797979",
"R  c #818181",
"E  c gray51",
"W  c #848484",
"Q  c #868686",
"!  c #888888",
"~  c #8B8B8B",
"^  c gray56",
"/  c gray57",
"(  c #939393",
")  c #9D9D9D",
"_  c #9F9F9F",
"`  c #A4A4A4",
"'  c #A9A9A9",
"]  c gray68",
"[  c #AEAEAE",
"{  c gray69",
"}  c gray70",
"|  c #B4B4B4",
" . c gray72",
".. c #BCBCBC",
"X. c gray74",
"o. c gray",
"O. c #C0C0C0",
"+. c #C1C1C1",
"@. c gray76",
"#. c #C6C6C6",
"$. c gray78",
"%. c #CACACA",
"&. c #CBCBCB",
"*. c gray80",
"=. c #D0D0D0",
"-. c gray82",
";. c #D2D2D2",
":. c LightGray",
">. c #D7D7D7",
",. c #D8D8D8",
"<. c #DADADA",
"1. c gainsboro",
"2. c #DDDDDD",
"3. c gray87",
"4. c #DFDFDF",
"5. c gray88",
"6. c gray89",
"7. c gray90",
"8. c #E7E7E7",
"9. c #EAEAEA",
"0. c #ECECEC",
"q. c gray93",
"w. c #EEEEEE",
"e. c #EFEFEF",
"r. c gray94",
"t. c #F1F1F1",
"y. c gray95",
"u. c #F3F3F3",
"i. c #F4F4F4",
"p. c gray96",
"a. c #F6F6F6",
"s. c gray97",
"d. c #F8F8F8",
"f. c #F9F9F9",
"g. c gray98",
"h. c #FBFBFB",
"j. c gray99",
"k. c #FDFDFD",
"l. c #FEFEFE",
"z. c white",
/* pixels */
"                                                                                                                                ",
"                                                                                                                                ",
"                                                                                                                                ",
"                                                                                                                                ",
"                                                                                                                                ",
"                                                                                                                                ",
"                                                                                                                                ",
"                                                                                                                                ",
"                                                                                                                                ",
"                                                          O                                                                     ",
"                                            O                                                                                   ",
"                                                              O                                                                 ",
"                                              O       O                                                                         ",
"                                                  O       O                                   O                                 ",
"                                  O       $                                                                                     ",
"                                  O     O p l l c p c j j $     j j j j j l l c l l j d l c p <                                 ",
"                          O         O O | l.l.l.l.l.l.g.        a.l.l.l.l.l.7.7 a.l.l.l.l.l.g.G                                 ",
"                O         O           *.l.l.g.l.l.l.l.  O       g.l.a.l.l.e.O 2 l.l.l.l.l.l.l.K                                 ",
"                  O O         O O   [ l.l.a.l.l.l.g.O       O   a.l.l.a.u.    e l.g.l.l.l.l.g.Z                                 ",
"                      O $         $.l.l.u.l.l.l.l.  O           g.l.g.a.      2 l.l.l.g.g.l.l.K                                 ",
"                                | l.l.l.l.l.l.g.  O   O         g.g.e.        9 l.l.l.g.l.l.a.Z                                 ",
"                      O     $ +.l.l.l.l.l.l.g.O   O         O   g.e.          7 l.l.l.l.l.g.g.G                                 ",
"                      O     ` l.a.l.l.l.l.l.$             O   O 6.$         - < l.l.l.l.l.l.l.V                                 ",
"                          } l.l.l.g.l.l.l.      O     O     O   O              .l.l.l.l.l.l.a.                                  ",
"                    O   ' l.g.l.l.l.l.l.$   O     O         O     O     O O +.l.l.l.g.l.g.g.O                                   ",
"O           O         } a.g.l.l.g.l.g.        O     O         $           +.g.g.l.l.l.a.l.  $                                   ",
"      $   O         [ g.l.l.l.l.l.l.O       O             O             X.g.l.l.l.l.l.g.O                                       ",
"O                 X.l.l.l.l.l.l.l.  O   O         O               $   X.g.l.l.l.l.l.g.  O   $                                   ",
"      O O O     } a.l.l.l.l.l.l.                                    +.l.l.u.l.l.l.a.      $                                     ",
"              X.l.l.g.l.g.l.a.                      O     $     O %.l.l.g.l.l.g.l.    O                                         ",
"  O         | g.g.l.l.l.l.g.c e t e d p t j e j t p t t d       +.g.g.l.l.l.g.l.          O   O                                 ",
"            e.l.l.l.l.g.l.l.l.l.l.l.l.l.g.l.l.g.l.g.l.l.l.      g.l.g.l.l.l.l.e.            E G                                 ",
"O   O O     a.l.l.l.l.l.l.l.l.l.g.l.l.g.l.l.l.l.l.l.l.l.l.      g.l.l.l.l.l.l.e.        O ! l.G                                 ",
"  O         9.l.l.l.l.l.l.l.l.l.l.a.l.l.g.l.g.l.l.l.l.l.l.      g.l.l.l.l.l.l.e.        W a.l.Z                                 ",
"    O   O   g.l.l.l.l.l.l.l.l.l.l.a.l.g.l.l.l.l.l.l.l.l.l.      a.l.l.l.l.l.l.e.      E g.l.l.Z                                 ",
"            u.l.l.l.l.l.l.l.l.l.a.l.l.l.l.l.l.l.l.l.l.l.l.      g.l.l.l.l.l.l.e.O   W g.g.l.g.G                                 ",
"            a.l.l.l.l.l.l.l.l.l.l.g.g.l.l.l.l.l.l.l.l.l.l.      a.l.l.l.l.l.l.e.  W l.l.l.l.g.G                                 ",
"          O   O                   O       2.g.g.l.l.l.l.l.      g.l.l.l.l.l.l.u./ g.l.g.l.g.l.V                                 ",
"  O                             O         6.l.l.l.l.l.l.l.      2 2 2 7 2 2 7 < 2 2 7 7 2 9 2 -                                 ",
"              O                   O       2.l.l.l.l.l.l.l.                  O           O                                       ",
"                                  O     O <.l.l.l.g.l.l.l.                  $     O                 O                           ",
"                                O         2.l.l.l.l.l.g.l.O                     O       O               O     O                 ",
"                                          7.l.g.l.l.l.l.l.    O               O                       O                         ",
"                                  $       :.l.l.l.g.l.l.g.O     O         O             O     O     O     O O                   ",
"                                      O   Z K K P G K K I   O   %.    O       O               O O                               ",
"                                                            O O a.          O   O   $ O   $         O   $ O                     ",
"                                              O       $         u.O     g.l.e ^ a.:.) U u.:.l.  l.  2.N u.a.! O                 ",
"                                    O                   O     O g.    < a.2.> :.) G >.n g.N a.$ l.  a.$ U Y O                   ",
"                                                                u.  O e $.Y / l.    e.  l.l.- p a.  l.  %.B                     ",
"                                                                g.    P l.l.- g.l.N l.  l.t a.  l.l.<.  l.e                     ",
"                                                                a.          $                 O   O O O   O                     ",
"                                                                a.    O   O           $                 O     O                 ",
"                                                                        O               O           O         O                 ",
"                                                                  O O           O         O           $     O                   ",
"                                                                      O   O             $                     O                 ",
"                                                                  $     O                             O   O                     ",
"                                                                                                                                ",
"                                                                                                                                ",
"                                                                                                                                ",
"                                                                                                                                ",
"                                                                                                                                ",
"                                                                                                                                ",
"                                                                                                                                ",
"                                                                                                                                "
};
