/* XPM */
static char *_78cbdf537374bb4e7adf2d0de61ec873F8gb5C3DOuNXbf0[] = {
/* columns rows colors chars-per-pixel */
"64 64 242 2 ",
"   c #000000",
".  c #0A0102",
"X  c #010902",
"o  c #0B0C02",
"O  c #02020A",
"+  c #0B020C",
"@  c #03090B",
"#  c #09090B",
"$  c #120000",
"%  c #1B0202",
"&  c #120C02",
"*  c #190707",
"=  c #08120A",
"-  c #14160A",
";  c #020213",
":  c #0B0212",
">  c #010913",
",  c #0A0A18",
"<  c #160714",
"1  c #071516",
"2  c #181918",
"3  c #220200",
"4  c #260804",
"5  c #380A03",
"6  c #3B1201",
"7  c #36190A",
"8  c #220E18",
"9  c #221916",
"0  c #2C1710",
"q  c #1F2217",
"w  c #09241F",
"e  c #27211A",
"r  c #342318",
"t  c #3E2A07",
"y  c #091D24",
"u  c #181627",
"i  c #0A0A22",
"p  c #221427",
"a  c #182326",
"s  c #1B2531",
"d  c #2D2927",
"f  c #372B28",
"g  c #383427",
"h  c #382A3D",
"j  c #471504",
"k  c #591907",
"l  c #4C170F",
"z  c #7A1D00",
"x  c #592507",
"c  c #462418",
"v  c #592612",
"b  c #493314",
"n  c #58331B",
"m  c #50310A",
"M  c #6B290D",
"N  c #682308",
"B  c #7D2A0A",
"V  c #7B300A",
"C  c #6B2A14",
"Z  c #702918",
"A  c #793715",
"S  c #6A3416",
"D  c #482A26",
"F  c #4F2F2A",
"G  c #793321",
"H  c #7E4418",
"J  c #6B461C",
"K  c #564229",
"L  c #6E4329",
"P  c #784B32",
"I  c #734E32",
"U  c #3B3645",
"Y  c #754D4D",
"T  c #851D10",
"R  c #8A2B0C",
"E  c #862D09",
"W  c #89340C",
"Q  c #9E3A0D",
"!  c #97340A",
"~  c #882B17",
"^  c #932B17",
"/  c #8A3615",
"(  c #953718",
")  c #922705",
"_  c #A43D0D",
"`  c #A8360A",
"'  c #A43917",
"]  c #893927",
"[  c #9C3D22",
"{  c #963B23",
"}  c #B43E24",
"|  c #AA3B25",
" . c #9D4315",
".. c #9C461C",
"X. c #98481A",
"o. c #91470F",
"O. c #A3460B",
"+. c #A24515",
"@. c #AA4414",
"#. c #A3451A",
"$. c #AE4C1D",
"%. c #A8481A",
"&. c #B34A1E",
"*. c #B8461A",
"=. c #A9531B",
"-. c #B6531E",
";. c #BA561B",
":. c #B3611B",
">. c #894625",
",. c #994726",
"<. c #944A36",
"1. c #905436",
"2. c #AD4C22",
"3. c #AA4725",
"4. c #B54E21",
"5. c #B74D29",
"6. c #AC5425",
"7. c #AA572A",
"8. c #B35225",
"9. c #BC5324",
"0. c #BC542C",
"q. c #BF5E2D",
"w. c #B85B26",
"e. c #AB4C32",
"r. c #A25437",
"t. c #BB5934",
"y. c #BB4835",
"u. c #9E633B",
"i. c #B9632C",
"p. c #B96637",
"a. c #AB6832",
"s. c #C6591F",
"d. c #CC501A",
"f. c #CD6A1C",
"g. c #C45B22",
"h. c #C75828",
"j. c #D65E2B",
"k. c #C85934",
"l. c #D15A3B",
"z. c #CC4E25",
"x. c #E05828",
"c. c #CD6925",
"v. c #C9642A",
"b. c #CD6B2B",
"n. c #C66626",
"m. c #D36A22",
"M. c #D46E2C",
"N. c #D46728",
"B. c #CB722D",
"V. c #D5702E",
"C. c #C26533",
"Z. c #C66834",
"A. c #CD6E33",
"S. c #CB6C3A",
"D. c #CD6539",
"F. c #D26F32",
"G. c #DA6C32",
"H. c #D66737",
"J. c #CD733C",
"K. c #C97339",
"L. c #D37134",
"P. c #D4753B",
"I. c #DA763C",
"U. c #D5793E",
"Y. c #D9793E",
"T. c #D77532",
"R. c #EB6729",
"E. c #FC6D2E",
"W. c #F36A26",
"Q. c #E57C2A",
"!. c #F5762E",
"~. c #E66B3A",
"^. c #F26833",
"/. c #E87A39",
"(. c #FA7636",
"). c #F2761C",
"_. c #995C46",
"`. c #874F42",
"'. c #A84F44",
"]. c #936B55",
"[. c #B86944",
"{. c #B77843",
"}. c #AD714F",
"|. c #89746F",
" X c #D05641",
".X c #D46745",
"XX c #C77548",
"oX c #D47443",
"OX c #D57A43",
"+X c #DA7B43",
"@X c #DC7D4A",
"#X c #DA7446",
"$X c #C87956",
"%X c #D57A57",
"&X c #CA6A45",
"*X c #EA6145",
"=X c #E77742",
"-X c #FA7747",
";X c #C67666",
":X c #FA8328",
">X c #EB8A3A",
",X c #FB883A",
"<X c #BC8A4B",
"1X c #AE916D",
"2X c #D9834A",
"3X c #DC934A",
"4X c #C98353",
"5X c #DB8656",
"6X c #DA985C",
"7X c #CD884D",
"8X c #E2824F",
"9X c #E78949",
"0X c #F7884C",
"qX c #F8984A",
"wX c #E78857",
"eX c #F88D59",
"rX c #E9985B",
"tX c #FC9E58",
"yX c #DFA55C",
"uX c #F8A356",
"iX c #F7A750",
"pX c #D59269",
"aX c #D7936D",
"sX c #F98E66",
"dX c #E9966B",
"fX c #F49C66",
"gX c #E6A76A",
"hX c #F9AA6A",
"jX c #FEB464",
"kX c #FDAA70",
"lX c #F5A575",
"zX c #FAB877",
"xX c #E3A973",
"cX c #F6C277",
"vX c #797782",
"bX c #FDB983",
"nX c #F1BA8B",
"mX c #D1B5A8",
"MX c #F6C88F",
"NX c #FFD1B3",
"BX c #C3B8C0",
"VX c #A0A69A",
/* pixels */
"                                                                                                                                ",
"                                                                                                                                ",
"                                                                                                                                ",
"                                                                                                                                ",
"                                                                                                                                ",
"                                                                                                                                ",
"                                                                                                                                ",
"                                                                                                                                ",
"                                                                                                                                ",
"                                                                                                                                ",
"                                                                                                                                ",
"                                                                                                                                ",
"                                                                                                                                ",
"                                                                                                                                ",
"                                                                                                                                ",
"                                                                                                                                ",
"                                                                ;     O O . . ;   .       O   O ; O       O   X                 ",
"                                                                        =       .   >   . . <   .   .   .   +                   ",
"                                                                . + O + O % 3 < O : O . X * = #     +   .                       ",
"                                                                    . O > 5Xp.r K n f & 2 B.P <       O                         ",
"                                                                > . .   . qX3X].: 7.b.}.{.<X1.> .       + .                     ",
"                                                                O O   + + H |.% . m L F U Y & $ .   X   O                       ",
"                                                                gXxX6X3XwX9X3 5X2X/.Q.I.l.# G.v.*XH.h.[ o   O X                 ",
"                                                                zXzXkXiXqXqXY qX0X,X0X(.:X6 !.-XW.!.E.*X    .                   ",
"                                                                bXjXY I H eX{.0X9XL J i.(.Z !.7.A S W.*XO O                     ",
"                                                            O O zXhXiXfXtX>XK.,XsX0X0X,X-XS ^., ; : ~.k.$   O O                 ",
"                                                      X         bXlXiXqX,XqX5 qX:X,X(.(.).n (.5     ~..X    + +                 ",
"                                                              # jXuXf 7 c r ; 0XQ.r ;X(.x x ~.-X(.^.R.l.  + O .                 ",
"                                                                jXiX      . & >XU.O % :XE.+ E.^.R.~.x. XX     .                 ",
"                                                    O       . # < 3   O @ O   - 1   O o 4 . O * # < & .       .                 ",
"                                                          o e f d F D $     $         . O > @   O   + .   #                     ",
"                                                      . - 9 9 2 2 - 1 4X@X+X%X$X$Xp.D.v.h.w.d.-.&.*.o.&.( ] 0                   ",
"                                                O .   @ pXy 1 a h a u ;X%X7X@XK.U.S.XXa.t.k.8.6.e.@.o.{ <.( A n X   ; +     O   ",
"                                                O   O }.$X6 u p a 2 f Q 7X5XP d , c 7.L.i.0.h.=.3.+.,.VXBXmX^ R c . O     #     ",
"                                                    }.kXk.dX`.t D >.S.a./.g q u s u 8 _.q.:.i.5.3.@.3.1XmX_.W W '.F X O     O   ",
"                                                . . B.5XuX1XMXp.B ^ &X0XpX8 2 u U u 1 r [.k.$.6.e.5. .} X.! o.A ^ j .     O     ",
"                                                O + #X6XsXxXb q F r.sX7XOXe 2 a vX1 - <.k.w.k.y.2.' | 3...W / ~ / M c   O       ",
"                                                o ].9XpXr.1 - < * = b %XV.gX1.i < c ] lXn.-.9.8.=.8.} [ ! Q ' ( V / ].$ O @     ",
"                                                X cXlX9Xu - s g d 2 , v./.{.NXXX/ T e.%Xs.;.=.5.6.Q $.%.[ [ / E W XX_.$         ",
"                                                + MXnX5X= w p h u = F 5.#XyXcX7.W _ ~./.i.0.5.$.3.5.X.M $ . 1.! ^ %XM $         ",
"                                                O eXlX%X$X< = 2 0 P [.K.A.OX9X/.h.s.g.h.9.-.2.$.*.*.>.5 : + c / ^ 3.6 @         ",
"                                                : +XrXfX3XMXa.3.Z { eXh.H.H.D.D.g.-.9.9.8.4.2.2.X.o. .( G Z ~ ( ( ,.5 .     O   ",
"                                                $ T.gXXXbX4XXX^ x 1.dX+XoXq.h.h.9.4.8.8.2.2.2.3.,.,.Q ` ! ( ^ ~ e.,.5 5     O   ",
"                                                D S.fXwXU.K.n.9.7.i.$.8.6.6.8.+.2.%.%.%.#.#.#. .' | [ ,.^ R V { 3.>.j ]     O   ",
"                                                }.A.K.kX6Xp.7. .@.O.O.+.......#.+. .+.+.+.+.#.+.O.+.,.,.#.+. .#.R M k '.X   O   ",
"                                                hX=XH.j.>X0X9XqXrX5XwX8X8X8X+X9X8X@X@X8X@X@X@X@X+X2X2X#X+XoX0.W z N Z <.    O   ",
"                                                nXp.&Xl.0.z.9.g.d.z.*.h.*.*.&.2.@.@.@.@._ _ _ _ ' _ ` ` Q ! ) R E B ~ N         ",
"                                                rXA.w.C.p.v.v.k.q.Z.q.q.g.g.g.-.9.9.9.9.4.4.&.&.3.*.@.$.@.2.+.` ( ( R j :     O ",
"                                  O   . O   O $ wXC.C.J.OX+XP.L.L.F.L.L.L.L.F.b.b.b.b.b.b.b.b.c.M.M.M.M.M.M.c.c.j...( x u O #   ",
"                                  O           7 OXZ.J.+X+X+XP.I.L.L.L.L.L.L.L.F.F.L.L.L.V.M.M.M.M.M.M.M.M.M.M.M.N.C.$.M D       ",
"                                  O       . . _.Z.S.@X@X+X+XY.Y.P.P.L.L.L.L.L.L.L.L.L.L.L.L.V.V.V.V.V.V.V.V.M.M.b.B.c.~ r.      ",
"                                            . pXS.OX@XOX+X+XU.I.P.P.P.P.P.L.L.L.L.L.L.L.F.V.V.V.M.M.V.V.V.V.M.M.c.c.f.^ t.      ",
"                                              lXJ.+XOXOX+XY.U.I.U.P.P.P.L.L.L.L.L.L.L.L.F.V.L.L.M.M.V.V.V.V.M.M.N.V.f.{ E       ",
"                                      O   O X hXS.OXOXOX+XU.U.+XU.P.P.L.L.L.L.L.L.L.L.L.F.F.V.V.V.V.V.V.V.V.V.M.G.M.m.,.k     O ",
"                                      O   O   9XZ.OXOX+X+XOX+XI.U.P.P.P.L.L.L.L.L.L.L.F.F.F.M.M.M.M.V.V.V.V.V.M.G.v.N.i.x *   O ",
"                                        . O < =XZ.+XOXOX+X+X+XL.U.U.P.P.L.L.L.L.L.L.L.L.F.F.F.V.M.M.M.V.V.V.M.M.m.V.N.b.v c     ",
"                                  O O     O x .XoXOXOX+X+X+XU.U.P.P.P.L.L.L.L.L.L.L.F.F.F.F.L.V.V.V.V.M.V.V.M.M.T.m.j.G.C A >   ",
"                                  O     .   u..XOXOXOX+XU.Y.U.U.P.P.P.L.L.L.L.L.L.L.F.F.F.F.V.V.V.V.V.M.V.V.M.M.b.M.M.m.A r.O   ",
"                                  O     .   xXD.OXOXOXOXU.U.U.OXP.P.P.L.L.L.L.L.L.L.F.F.F.F.V.M.L.V.V.V.V.V.M.M.M.M.b.c.,.e.    ",
"                                          . bXS.OXOXOXU.U.U.U.OXP.L.P.L.L.L.L.L.L.L.F.F.L.F.F.M.V.V.V.V.L.V.M.M.V.m.b.c.,.B .   ",
"                                    .       lXC.OXOXOXU.U.U.U.U.P.P.P.L.L.L.L.L.L.L.L.F.L.L.F.M.L.L.V.V.V.L.M.M.b.m.G.c.,.k o O ",
"                                      O @ . wXp.OXOXU.U.U.U.P.P.P.P.P.L.L.L.L.L.L.L.A.A.F.L.F.F.L.F.F.F.V.L.V.M.b.m.G.b.t.v . O ",
"                                        O 4 +Xp.OXU.U.U.U.U.P.P.P.P.P.L.L.L.L.L.L.L.A.A.F.F.F.F.F.F.F.L.V.V.V.M.L.m.b.b.D.Z 7   ",
"                                    . O   c G.K.U.U.U.U.U.U.U.P.P.P.P.L.L.L.L.L.L.L.A.A.A.F.F.F.F.F.F.L.V.L.V.M.A.b.B.n.H.~ P   "
};
