/* XPM */
static char *ef416fb892dd4e1bae18376ef75114dfj9PB2sE7T0Ndv2Yf[] = {
/* columns rows colors chars-per-pixel */
"64 64 3 1 ",
"  c black",
". c #1A1E38",
"X c #34495E",
/* pixels */
"........ .............. ............... ............... ........",
"XXXXXXXX.XXXXXXXXXXXXXX.XXXXXXXXXXXXXXX.XXXXXXXXXXXXXXX.XXXXXXXX",
"XXXXXX X.X XXXXXXXXXX X.X XXXXXXXXXX XX.X XXXXXXXXXX XX.X XXXXXX",
"XXXXXXXX.XXXXXXXXXXXXXX.XXXXXXXXXXXXXXX.XXXXXXXXXXXXXXX.XXXXXXXX",
"XXXXXXXX.XXXXXXXXXXXXXX.XXXXXXXXXXXXXXX.XXXXXXXXXXXXXXX.XXXXXXXX",
"XXXXXXXX.XXXXXXXXXXXXXX.XXXXXXXXXXXXXXX.XXXXXXXXXXXXXXX.XXXXXXXX",
"XXXXXXXX.XXXXXXXXXXXXXX.XXXXXXXXXXXXXXX.XXXXXXXXXXXXXXX.XXXXXXXX",
"XXXXXXXX.XXXXXXXXXXXXXX.XXXXXXXXXXXXXXX.XXXXXXXXXXXXXXX.XXXXXXXX",
"XXXXXXXX.XXXXXXXXXXXXXX.XXXXXXXXXXXXXXX.XXXXXXXXXXXXXXX.XXXXXXXX",
"XXXXXXXX.XXXXXXXXXXXXXX.XXXXXXXXXXXXXXX.XXXXXXXXXXXXXXX.XXXXXXXX",
"XXXXXXXX.XXXXXXXXXXXXXX.XXXXXXXXXXXXXXX.XXXXXXXXXXXXXXX.XXXXXXXX",
"XXXXXXXX.XXXXXXXXXXXXXX.XXXXXXXXXXXXXXX.XXXXXXXXXXXXXXX.XXXXXXXX",
"XXXXXXXX.XXXXXXXXXXXXXX.XXXXXXXXXXXXXXX.XXXXXXXXXXXXXXX.XXXXXXXX",
"XXXXXX X.X XXXXXXXXXX X.X XXXXXXXXXX XX.X XXXXXXXXXX XX.X XXXXXX",
"XXXXXXXX.XXXXXXXXXXXXXX.XXXXXXXXXXXXXXX.XXXXXXXXXXXXXXX.XXXXXXXX",
"........ .............. ............... ............... ........",
"XXXXXXXX.XXXXXXXXXXXXXX.XXXXXXXXXXXXXXX.XXXXXXXXXXXXXXX.XXXXXXXX",
"XXXXXX X.X XXXXXXXXXX X.X XXXXXXXXXX XX.X XXXXXXXXXX XX.X XXXXXX",
"XXXXXXXX.XXXXXXXXXXXXXX.XXXXXXXXXXXXXXX.XXXXXXXXXXXXXXX.XXXXXXXX",
"XXXXXXXX.XXXXXXXXXXXXXX.XXXXXXXXXXXXXXX.XXXXXXXXXXXXXXX.XXXXXXXX",
"XXXXXXXX.XXXXXXXXXXXXXX.XXXXXXXXXXXXXXX.XXXXXXXXXXXXXXX.XXXXXXXX",
"XXXXXXXX.XXXXXXXXXXXXXX.XXXXXXXXXXXXXXX.XXXXXXXXXXXXXXX.XXXXXXXX",
"XXXXXXXX.XXXXXXXXXXXXXX.XXXXXXXXXXXXXXX.XXXXXXXXXXXXXXX.XXXXXXXX",
"XXXXXXXX.XXXXXXXXXXXXXX.XXXXXXXXXXXXXXX.XXXXXXXXXXXXXXX.XXXXXXXX",
"XXXXXXXX.XXXXXXXXXXXXXX.XXXXXXXXXXXXXXX.XXXXXXXXXXXXXXX.XXXXXXXX",
"XXXXXXXX.XXXXXXXXXXXXXX.XXXXXXXXXXXXXXX.XXXXXXXXXXXXXXX.XXXXXXXX",
"XXXXXXXX.XXXXXXXXXXXXXX.XXXXXXXXXXXXXXX.XXXXXXXXXXXXXXX.XXXXXXXX",
"XXXXXXXX.XXXXXXXXXXXXXX.XXXXXXXXXXXXXXX.XXXXXXXXXXXXXXX.XXXXXXXX",
"XXXXXX X.X XXXXXXXXXX X.X XXXXXXXXXX XX.X XXXXXXXXXX XX.X XXXXXX",
"XXXXXXXX.XXXXXXXXXXXXXX.XXXXXXXXXXXXXXX.XXXXXXXXXXXXXXX.XXXXXXXX",
"........ .............. ............... ............... ........",
"XXXXXXXX.XXXXXXXXXXXXXX.XXXXXXXXXXXXXXX.XXXXXXXXXXXXXXX.XXXXXXXX",
"XXXXXX X.X XXXXXXXXXX X.X XXXXXXXXXX XX.X XXXXXXXXXX XX.X XXXXXX",
"XXXXXXXX.XXXXXXXXXXXXXX.XXXXXXXXXXXXXXX.XXXXXXXXXXXXXXX.XXXXXXXX",
"XXXXXXXX.XXXXXXXXXXXXXX.XXXXXXXXXXXXXXX.XXXXXXXXXXXXXXX.XXXXXXXX",
"XXXXXXXX.XXXXXXXXXXXXXX.XXXXXXXXXXXXXXX.XXXXXXXXXXXXXXX.XXXXXXXX",
"XXXXXXXX.XXXXXXXXXXXXXX.XXXXXXXXXXXXXXX.XXXXXXXXXXXXXXX.XXXXXXXX",
"XXXXXXXX.XXXXXXXXXXXXXX.XXXXXXXXXXXXXXX.XXXXXXXXXXXXXXX.XXXXXXXX",
"XXXXXXXX.XXXXXXXXXXXXXX.XXXXXXXXXXXXXXX.XXXXXXXXXXXXXXX.XXXXXXXX",
"XXXXXXXX.XXXXXXXXXXXXXX.XXXXXXXXXXXXXXX.XXXXXXXXXXXXXXX.XXXXXXXX",
"XXXXXXXX.XXXXXXXXXXXXXX.XXXXXXXXXXXXXXX.XXXXXXXXXXXXXXX.XXXXXXXX",
"XXXXXXXX.XXXXXXXXXXXXXX.XXXXXXXXXXXXXXX.XXXXXXXXXXXXXXX.XXXXXXXX",
"XXXXXXXX.XXXXXXXXXXXXXX.XXXXXXXXXXXXXXX.XXXXXXXXXXXXXXX.XXXXXXXX",
"XXXXXX X.X XXXXXXXXXX X.X XXXXXXXXXX XX.X XXXXXXXXXX XX.X XXXXXX",
"XXXXXXXX.XXXXXXXXXXXXXX.XXXXXXXXXXXXXXX.XXXXXXXXXXXXXXX.XXXXXXXX",
"........ .............. ............... ............... ........",
"XXXXXXXX.XXXXXXXXXXXXXX.XXXXXXXXXXXXXXX.XXXXXXXXXXXXXXX.XXXXXXXX",
"XXXXXX X.X XXXXXXXXXX X.X XXXXXXXXXX XX.X XXXXXXXXXX XX.X XXXXXX",
"XXXXXXXX.XXXXXXXXXXXXXX.XXXXXXXXXXXXXXX.XXXXXXXXXXXXXXX.XXXXXXXX",
"........ .............. ............... ............... ........",
"XXXXXXXX.XXXXXXXXXXXXXX.XXXXXXXXXXXXXXX.XXXXXXXXXXXXXXX.XXXXXXXX",
"XXXXXX X.X XXXXXXXXXX X.X XXXXXXXXXX XX.X XXXXXXXXXX XX.X XXXXXX",
"XXXXXXXX.XXXXXXXXXXXXXX.XXXXXXXXXXXXXXX.XXXXXXXXXXXXXXX.XXXXXXXX",
"XXXXXXXX.XXXXXXXXXXXXXX.XXXXXXXXXXXXXXX.XXXXXXXXXXXXXXX.XXXXXXXX",
"XXXXXXXX.XXXXXXXXXXXXXX.XXXXXXXXXXXXXXX.XXXXXXXXXXXXXXX.XXXXXXXX",
"XXXXXXXX.XXXXXXXXXXXXXX.XXXXXXXXXXXXXXX.XXXXXXXXXXXXXXX.XXXXXXXX",
"XXXXXXXX.XXXXXXXXXXXXXX.XXXXXXXXXXXXXXX.XXXXXXXXXXXXXXX.XXXXXXXX",
"XXXXXXXX.XXXXXXXXXXXXXX.XXXXXXXXXXXXXXX.XXXXXXXXXXXXXXX.XXXXXXXX",
"XXXXXXXX.XXXXXXXXXXXXXX.XXXXXXXXXXXXXXX.XXXXXXXXXXXXXXX.XXXXXXXX",
"XXXXXXXX.XXXXXXXXXXXXXX.XXXXXXXXXXXXXXX.XXXXXXXXXXXXXXX.XXXXXXXX",
"XXXXXXXX.XXXXXXXXXXXXXX.XXXXXXXXXXXXXXX.XXXXXXXXXXXXXXX.XXXXXXXX",
"XXXXXXXX.XXXXXXXXXXXXXX.XXXXXXXXXXXXXXX.XXXXXXXXXXXXXXX.XXXXXXXX",
"XXXXXX X.X XXXXXXXXXX X.X XXXXXXXXXX XX.X XXXXXXXXXX XX.X XXXXXX",
"XXXXXXXX.XXXXXXXXXXXXXX.XXXXXXXXXXXXXXX.XXXXXXXXXXXXXXX.XXXXXXXX"
};
