/* XPM */
static char *d64c305972e2498dbe233a28328ceb1expIH3evh4ALrlolk[] = {
/* columns rows colors chars-per-pixel */
"64 64 6 1 ",
"  c #392619",
". c #38281A",
"X c #533A25",
"o c #6B452A",
"O c #8B5833",
"+ c #A5683E",
/* pixels */
"OO+X OO ooo X+OO OO+X OO ooo X+OO OO+X OO ooo X+OO OO+X OO ooo X",
"o+XX OO +oo   OOOo+XX OO +oo   OOOo+XX OO +oo   OOOo+XX OO +oo  ",
"O+XX Oo O+ooo .O O+XX Oo O+ooo .O O+XX Oo O+ooo .O O+XX Oo O+ooo",
"o+XX OO Oo+++  oOo+XX OO Oo+++  oOo+XX OO Oo+++  oOo+XX OO Oo+++",
"O+XXOoo ooO+XXOO O+XXOoo ooO+XXOO O+XXOoo ooO+XXOO O+XXOoo ooO+X",
"oOXX oO OOOXX oo oOXX oO OOOXX oo oOXX oO OOOXX oo oOXX oO OOOXX",
"o+XXo+O oO++XXOo o+XXo+O oO++XXOo o+XXo+O oO++XXOo o+XXo+O oO++X",
"O+XX o+ OOO+X oO O+XX o+ OOO+X oO O+XX o+ OOO+X oO O+XX o+ OOO+X",
"O ooO+XXOO+XXXOOOO ooO+XXOO+XXXOOOO ooO+XXOO+XXXOOOO ooO+XXOO+XX",
"o OOOXX ooO+X OO o OOOXX ooO+X OO o OOOXX ooO+X OO o OOOXX ooO+X",
"OO++X OO O+XX  OOOO++X OO O+XX  OOOO++X OO O+XX  OOOO++X OO O+XX",
" OoXX oo oO+X oO  OoXX oo oO+X oO  OoXX oo oO+X oO  OoXX oo oO+X",
"OOO++X OO OXX OO OOO++X OO OXX OO OOO++X OO OXX OO OOO++X OO OXX",
"O OoXX oo X OO O O OoXX oo X OO O O OoXX oo X OO O O OoXX oo X O",
"O o+XXXoO X oo o O o+XXXoO X oo o O o+XXXoO X oo o O o+XXXoO X o",
"O oO+X OO XXoO O O oO+X OO XXoO O O oO+X OO XXoO O O oO+X OO XXo",
"o O+XX oO X OO O o O+XX oO X OO O o O+XX oO X OO O o O+XX oO X O",
"OO+X OO ooo X+OO OO+X OO ooo X+OO OO+X OO ooo X+OO OO+X OO ooo X",
"o+XX OO +oo   OOOo+XX OO +oo   OOOo+XX OO +oo   OOOo+XX OO +oo  ",
"O+XX Oo O+ooo .O O+XX Oo O+ooo .O O+XX Oo O+ooo .O O+XX Oo O+ooo",
"o+XX OO Oo+++  oOo+XX OO Oo+++  oOo+XX OO Oo+++  oOo+XX OO Oo+++",
"O+XXOoo ooO+XXOO O+XXOoo ooO+XXOO O+XXOoo ooO+XXOO O+XXOoo ooO+X",
"oOXX oO OOOXX oo oOXX oO OOOXX oo oOXX oO OOOXX oo oOXX oO OOOXX",
"o+XXo+O oO++XXOo o+XXo+O oO++XXOo o+XXo+O oO++XXOo o+XXo+O oO++X",
"O+XX o+ OOO+X oO O+XX o+ OOO+X oO O+XX o+ OOO+X oO O+XX o+ OOO+X",
"O ooO+XXOO+XXXOOOO ooO+XXOO+XXXOOOO ooO+XXOO+XXXOOOO ooO+XXOO+XX",
"o OOOXX ooO+X OO o OOOXX ooO+X OO o OOOXX ooO+X OO o OOOXX ooO+X",
"OO++X OO O+XX  OOOO++X OO O+XX  OOOO++X OO O+XX  OOOO++X OO O+XX",
" OoXX oo oO+X oO  OoXX oo oO+X oO  OoXX oo oO+X oO  OoXX oo oO+X",
"OOO++X OO OXX OO OOO++X OO OXX OO OOO++X OO OXX OO OOO++X OO OXX",
"O OoXX oo X OO O O OoXX oo X OO O O OoXX oo X OO O O OoXX oo X O",
"O o+XXXoO X oo o O o+XXXoO X oo o O o+XXXoO X oo o O o+XXXoO X o",
"O oO+X OO XXoO O O oO+X OO XXoO O O oO+X OO XXoO O O oO+X OO XXo",
"o O+XX oO X OO O o O+XX oO X OO O o O+XX oO X OO O o O+XX oO X O",
"OO+X OO ooo X+OO OO+X OO ooo X+OO OO+X OO ooo X+OO OO+X OO ooo X",
"o+XX OO +oo   OOOo+XX OO +oo   OOOo+XX OO +oo   OOOo+XX OO +oo  ",
"O+XX Oo O+ooo .O O+XX Oo O+ooo .O O+XX Oo O+ooo .O O+XX Oo O+ooo",
"o+XX OO Oo+++  oOo+XX OO Oo+++  oOo+XX OO Oo+++  oOo+XX OO Oo+++",
"O+XXOoo ooO+XXOO O+XXOoo ooO+XXOO O+XXOoo ooO+XXOO O+XXOoo ooO+X",
"oOXX oO OOOXX oo oOXX oO OOOXX oo oOXX oO OOOXX oo oOXX oO OOOXX",
"o+XXo+O oO++XXOo o+XXo+O oO++XXOo o+XXo+O oO++XXOo o+XXo+O oO++X",
"O+XX o+ OOO+X oO O+XX o+ OOO+X oO O+XX o+ OOO+X oO O+XX o+ OOO+X",
"O ooO+XXOO+XXXOOOO ooO+XXOO+XXXOOOO ooO+XXOO+XXXOOOO ooO+XXOO+XX",
"o OOOXX ooO+X OO o OOOXX ooO+X OO o OOOXX ooO+X OO o OOOXX ooO+X",
"OO++X OO O+XX  OOOO++X OO O+XX  OOOO++X OO O+XX  OOOO++X OO O+XX",
" OoXX oo oO+X oO  OoXX oo oO+X oO  OoXX oo oO+X oO  OoXX oo oO+X",
"OOO++X OO OXX OO OOO++X OO OXX OO OOO++X OO OXX OO OOO++X OO OXX",
"O OoXX oo X OO O O OoXX oo X OO O O OoXX oo X OO O O OoXX oo X O",
"O o+XXXoO X oo o O o+XXXoO X oo o O o+XXXoO X oo o O o+XXXoO X o",
"O oO+X OO XXoO O O oO+X OO XXoO O O oO+X OO XXoO O O oO+X OO XXo",
"o O+XX oO X OO O o O+XX oO X OO O o O+XX oO X OO O o O+XX oO X O",
"OO+X OO ooo X+OO OO+X OO ooo X+OO OO+X OO ooo X+OO OO+X OO ooo X",
"o+XX OO +oo   OOOo+XX OO +oo   OOOo+XX OO +oo   OOOo+XX OO +oo  ",
"O+XX Oo O+ooo .O O+XX Oo O+ooo .O O+XX Oo O+ooo .O O+XX Oo O+ooo",
"o+XX OO Oo+++  oOo+XX OO Oo+++  oOo+XX OO Oo+++  oOo+XX OO Oo+++",
"O+XXOoo ooO+XXOO O+XXOoo ooO+XXOO O+XXOoo ooO+XXOO O+XXOoo ooO+X",
"oOXX oO OOOXX oo oOXX oO OOOXX oo oOXX oO OOOXX oo oOXX oO OOOXX",
"o+XXo+O oO++XXOo o+XXo+O oO++XXOo o+XXo+O oO++XXOo o+XXo+O oO++X",
"O+XX o+ OOO+X oO O+XX o+ OOO+X oO O+XX o+ OOO+X oO O+XX o+ OOO+X",
"O ooO+XXOO+XXXOOOO ooO+XXOO+XXXOOOO ooO+XXOO+XXXOOOO ooO+XXOO+XX",
"o OOOXX ooO+X OO o OOOXX ooO+X OO o OOOXX ooO+X OO o OOOXX ooO+X",
"OO++X OO O+XX  OOOO++X OO O+XX  OOOO++X OO O+XX  OOOO++X OO O+XX",
" OoXX oo oO+X oO  OoXX oo oO+X oO  OoXX oo oO+X oO  OoXX oo oO+X",
"OOO++X OO OXX OO OOO++X OO OXX OO OOO++X OO OXX OO OOO++X OO OXX"
};
