/* XPM */
static char *ccda3188fd3640e4ae2a1ceb2d98c31d866zJdP8xqtaIRKi[] = {
/* columns rows colors chars-per-pixel */
"64 64 256 2 ",
"   c #3C0304",
".  c #2A0C00",
"X  c #4C0202",
"o  c #430301",
"O  c #530301",
"+  c #5A0101",
"@  c #580609",
"#  c #560B0F",
"$  c #640203",
"%  c #6C0203",
"&  c #6B0608",
"*  c #740203",
"=  c #7D0103",
"-  c #7B030A",
";  c #780809",
":  c #710F0F",
">  c #733007",
",  c #610828",
"<  c #7B4606",
"1  c #75522E",
"2  c #830204",
"3  c #8B0203",
"4  c #83030A",
"5  c #8C030B",
"6  c #8A0A06",
"7  c #940204",
"8  c #9B0204",
"9  c #94040B",
"0  c #9B040B",
"q  c #960A0B",
"w  c #8C0B12",
"e  c #880514",
"r  c #970913",
"t  c #9A1318",
"y  c #8C1807",
"u  c #A30205",
"i  c #AB0205",
"p  c #A4040A",
"a  c #AC040A",
"s  c #A4090D",
"d  c #AB0B0B",
"f  c #B30105",
"g  c #BC0204",
"h  c #B4040B",
"j  c #BB040B",
"k  c #B40A0D",
"l  c #BA0A0D",
"z  c #A30B13",
"x  c #AC0C12",
"c  c #A70516",
"v  c #BC0511",
"b  c #B30C12",
"n  c #BB0B13",
"m  c #B80717",
"M  c #A81419",
"N  c #B31114",
"B  c #BB131B",
"V  c #B81519",
"C  c #AD1407",
"Z  c #8C3011",
"A  c #AF2A16",
"S  c #991B27",
"D  c #BA0527",
"F  c #A81923",
"G  c #B81824",
"H  c #B20E34",
"J  c #B12A28",
"K  c #C30104",
"L  c #C3040C",
"P  c #CA030C",
"I  c #C6080A",
"U  c #D4010D",
"Y  c #DA030A",
"T  c #C40313",
"R  c #CC0412",
"E  c #C40B14",
"W  c #CB0A13",
"Q  c #C40D1A",
"!  c #CA061B",
"~  c #DB0313",
"^  c #D4031B",
"/  c #DC011B",
"(  c #D30C1B",
")  c #D40915",
"_  c #C4141B",
"`  c #CC141C",
"'  c #C81619",
"]  c #D5131A",
"[  c #D1190C",
"{  c #E5081A",
"}  c #EC0E14",
"|  c #CC251A",
" . c #C80525",
".. c #D60726",
"X. c #CB1B23",
"o. c #C81923",
"O. c #D21C24",
"+. c #D81927",
"@. c #D30D35",
"#. c #E80628",
"$. c #E61827",
"%. c #EF1234",
"&. c #CC2328",
"*. c #D3242B",
"=. c #DB242B",
"-. c #D8282B",
";. c #D52D32",
":. c #DC2C33",
">. c #DA2835",
",. c #DC343B",
"<. c #DA3638",
"1. c #CE2E32",
"2. c #E4252C",
"3. c #E32B33",
"4. c #E82936",
"5. c #E43334",
"6. c #E2343B",
"7. c #E7373A",
"8. c #F6353D",
"9. c #F52934",
"0. c #E9281E",
"q. c #914F12",
"w. c #AE5114",
"e. c #AD6B0F",
"r. c #935927",
"t. c #AE582D",
"y. c #98632C",
"u. c #B07230",
"i. c #986200",
"p. c #C6741B",
"a. c #DC453C",
"s. c #C9542B",
"d. c #EF423C",
"f. c #C77A38",
"g. c #CB7030",
"h. c #D4622A",
"j. c #A71C41",
"k. c #DA3A45",
"l. c #D62C49",
"z. c #E43C43",
"x. c #E93A46",
"c. c #F43B43",
"v. c #EC354D",
"b. c #F51546",
"n. c #B4724A",
"m. c #BD656D",
"M. c #AA5468",
"N. c #DB4647",
"B. c #D44F53",
"V. c #E4444A",
"C. c #E44B4C",
"Z. c #E84547",
"A. c #F5464A",
"S. c #EB4C52",
"D. c #E74C54",
"F. c #F44C54",
"G. c #EB5354",
"H. c #E95859",
"J. c #F7585A",
"K. c #EA524A",
"L. c #CF7048",
"P. c #ED6E5A",
"I. c #CD4C70",
"U. c #F35D61",
"Y. c #F95766",
"T. c #EA546B",
"R. c #D87172",
"E. c #EB6665",
"W. c #F46464",
"Q. c #FB6B6C",
"!. c #F76868",
"~. c #F4726D",
"^. c #FA716C",
"/. c #FA7974",
"(. c #EE736E",
"). c #BB8835",
"_. c #AA851E",
"`. c #ED9313",
"'. c #EAB008",
"]. c #CD8C37",
"[. c #EB9133",
"{. c #CAA135",
"}. c #DB9E1A",
"|. c #EBC503",
" X c #F7D213",
".X c #DBC400",
"XX c #BE8846",
"oX c #B78952",
"OX c #B58F66",
"+X c #C68947",
"@X c #C6964B",
"#X c #C78A56",
"$X c #D9895A",
"%X c #C89759",
"&X c #D59758",
"*X c #D28C45",
"=X c #E69550",
"-X c #D3A855",
";X c #C69866",
":X c #D79867",
">X c #DA9B75",
",X c #D08D67",
"<X c #FD827B",
"1X c #EB9168",
"2X c #D8A867",
"3X c #C7AB74",
"4X c #D9A776",
"5X c #D7B777",
"6X c #D0AF6E",
"7X c #E5A977",
"8X c #E8B777",
"9X c #F0B26D",
"0X c #EAB05C",
"qX c #E7C678",
"wX c #F6C671",
"eX c #E8C569",
"rX c #D16F94",
"tX c #E26083",
"yX c #AE6785",
"uX c #CD9791",
"iX c #FE8E8C",
"pX c #DAB687",
"aX c #D5B28D",
"sX c #E9AA86",
"dX c #E6B788",
"fX c #E8BA95",
"gX c #F7B48C",
"hX c #EE91AA",
"jX c #D3B2A9",
"kX c #F2B2AC",
"lX c #D9C789",
"zX c #DCC997",
"xX c #EAC68A",
"cX c #F6C78A",
"vX c #E6C899",
"bX c #F6C897",
"nX c #F8D599",
"mX c #EAD391",
"MX c #D7CAAA",
"NX c #F6C8A6",
"BX c #EAD6A7",
"VX c #FAD6A6",
"CX c #FBD8B6",
"ZX c #E9CFB0",
"AX c #DDE3AD",
"SX c #FAE6B8",
"DX c #EFE9B2",
"FX c #E1B2CC",
"GX c #D4D8D8",
"HX c #EED3C6",
"JX c #FEE6CA",
"KX c #F3EFD0",
"LX c #EAD2E2",
"PX c #EDF0E6",
"IX c #D1E2DE",
"UX c #BAA787",
/* pixels */
"* - 4 5 5 5 9 0 0 z x x b b B B _ Q Q ` o._ Q o.E E Q E L L W W ] ' ( ] ] E L U L P L L j j j f i p i u u 8 8 7 2 2 - * % + X   ",
"% - 4 4 4 5 9 0 0 z z x b b b N n b j f v ! Q ( j v v j j L E W W R W U P n W L L L L g g j h f a f u i 8 u 7 7 7 3 2 = * % O o ",
"% * = 4 2 5 9 9 9 0 z c x x x b v Q Q n _ o._ B j j h a h j L L R E ~ U P P k g g K L g g h h f a p i u u 0 8 7 3 3 = * * $ X   ",
"% % - = = 2 5 9 9 0 0 p a x x b x n x h v B T v v j h a a h j L W P P R P g g g f g K g g h a i i u i 8 u 8 8 7 3 2 = * * $ X   ",
"% % * - - = 2 5 5 9 0 p p a a a h x v h n E n E v h a s p i f j T L g L K K P L i f j g f f i i u i u i 8 u 8 8 8 0 5 2 = % O o ",
"$ % * * * - 2 2 3 9 8 8 p a a a f h h h h h h n j h a p u u i f L L P L L ~ W g 8 p j j g f i f i i i i u u 0 8 8 0 9 3 = % O o ",
"% % % * * * = 2 3 7 7 8 a a a k x n s a h f T Q j f a p p u i f h U ) ) ~ ) R 8 3 8 h j g f f h f a f u i 0 u 0 7 7 5 2 = $ O   ",
"% % % % * * - 2 3 7 7 8 u i i a a h h h h v h v n h a a a a a h j L Y ~ ~ U f 3 2 7 a j j g j j h h a i u i p p p p 0 9 3 * + o ",
"$ % * - = = 2 2 3 3 7 8 u p a i n h h h v j j j h P n j j f P a } v I ~ Y ..q 7 0 2 5 a P K j i j f j u h u i u a s 8 7 3 * +   ",
"$ % * - = = 2 3 2 3 7 8 p a h h j j j g L E W T ) L T i K j N #.Q 9.( Y } w 3 r 8 5 = 8 f L g k E L a f d h d a u a 9 0 7 * $   ",
"% % * - - = 2 3 5 9 0 p a h j v P W P P L W W R W j n L K g E Q 2 l.c.K f = e 7 7 9 5 7 B L L h j j j k h a a a i s a q 7 = O o ",
"* * * * - 2 3 9 7 8 p a j T W W ] ) R ) R R P R ) K E K j j L fXu.* -.2.- % e 7 7 0 3 5 s L L g g v W _ E b f a b b s p 8 = $ o ",
"* - - = = 2 5 9 7 8 a h L L P P ( ) W ( W W P ) v P g g f U W 5X@Xu.; 0.@ # ; 0 7 8 7 q 0 v W I E W l W b E k h b x p p 8 2 % X ",
"- - 4 2 2 3 9 0 p p a h j L R R R ) ) W P W W W R U I K k l g 2Xf.#Xq.*X9.  $ - 7 7 r q z a ` L E E E E j j h h n x a d s 7 $ X ",
"- 4 4 5 5 5 9 0 0 p a h j L E ` P W ) P P P W L R L g U j l 9.f.u.OXe.s.8 } . * 5 q 3 9 3 0 b E W _ ( B W n v b N b x n k 3 * X ",
"- - 4 5 5 9 9 0 0 z N B n f f h ) R ) W W L W W R g P n L K =X-X).1 w.Z Z f %.y 4 6 6 9 t q s l ` W E L B E n n k x k n d 7 * O ",
"4 4 5 5 9 q z 0 M x n j x 9 k g A 2 ! $.g L ..g g E K W K I J :X,X+X1 OXr.# v $.y 2 q q F 0 0 q B _ W ] E ' j Q B n b b d a 2 + ",
"4 5 4 9 5 0 q 0 c a h d a x L 1X7X1Xt.V ^ T f P + g ] P ) 8.6.; oX, ;X4X).4 2 4.: - : r 3 0 t z x o.+.W ` j X.Q 8 d B n f i 3 $ ",
"2 4 5 r 9 9 z 0 M 0 a _ a i | 7X8X:Xw.P.4 ) $Xa.: ' ( ^ / T [ m r 2 ; > = - O # #X: 4 6 d N t c p o.` ] E j n n E E B N N x 9 % ",
"4 4 r t z r x M k b n E 8 f :X9XdX:Xu.$X6 gX1XL.(.Y T ..{ R { T h D h c D * % S > JX& : 0 t d r x N X.` ` W h b N n n n h h 8 = ",
"5 w w z r p z x s s s n k I :X=XfXpX$X$Xh.8X>X,XsXo ~ ' Y / @...] B.h @.g  .w 6 y.e.oXe z b c d p x B v E ` l k V _ Q n n E x 7 ",
"4 5 w r r z M x n x B O.k L.1XcXfXvXsX%X=XP.fX:X7X@ ~ K ~ 3.l.^  X|.'.uXE ^ ! u OX< ;XuX* V M C x V b B Q E ` ' W ( Q N N n a 8 ",
"5 w r t M M G M V N B W ` sXgXsXsXpXsXxXs.,XvXsX4XR ^ #...%.T ^ IX'.|.|.T. .T  .6X>X< XXzXV C G V x x b X.j ` ' V X.*.X.v L j a ",
"4 w w r t M M x M Q n b ` H.dXCXvXbX9X5X* ,XcX>X; I +.$.4.uX#.IX#.j '.'.'.! / m sXMXaXq.2XBXo.G V b x V o.=.` O.` o.X.B b l j i ",
"4 w r r t G M M J o.B V T W gXlXvXBX5 W } 1X#XZ ..P W $.#...PXl.IXR.`.'..XG ! c 3XMXpX7Xr.;XF k N G _ *.O.O.Q _ _ X.X._ n _ v f ",
"5 5 w r t F M G J E E n ! n v &.} ` P [ @Xg.w.w.2 a.@.+.#.GXHXPX! LXT |.'.8X#.= _.e.5X%X{.0XJ &.N x X.Q ` E ` *.-.X._ X.B _ E f ",
"5 5 5 r t F M F G N ' o.E b ] L $.I L.8X1Xh.u.L.L.( ../ NX#.PXGXFXI.GXI '.`...p y _.4XMXvXA ..V V b B o.+.+.*.X._ X._ _ _ _ h j ",
"5 5 5 r t F t J S G G B >X>X5X4Xy = 4XL.qXA dX*X9.../ @.k.|. .hXPXjXT.LX .`.D c 4 %X%XwXX.` 1.` o.o.X.>.O.o.X._ X.X.*.&.n _ _ f ",
"5 9 w r r t t F F S M 4XsXpXdX7XfXu.g.+XcX:X).$X} @.T #.$.|. X../ GXl.IXLXD T c & D `.9XB S Q -.o.o.o.O.` E =.*.*.:.&.' ' X.E n ",
"5 9 w w r t t S t F fXpX3XpXZXMX-XdXe.).2X&X:Xg.gX( ..~ +.'.|.`.PXtXLX@.rXrXE a - N.5.@ q w.K.o.&.B &.O.X.3.*.:.-.&.*.;.' ' _ l ",
"5 5 5 w w w w S S n.dX>XdXaXNXZX7X&Xq.w.7X7X@X[.zXxX .{ / qX|.|.HXGX#.#.FXI ^ m c p ; u.s.g.=X<.o.z.X.c.:._ 3.O.:.6.6.<.&._ k l ",
"5 5 5 w w w e S r aXdX4X4X4XpXlXpXn.q.$XpX:Xf.[.NX8X^ ^  .#.'.'.[.W ..o. .l.T ! { M g.p.wXs.pX7X*.o.*.X.=.O.*.-.:.,.:.*.' X._ l ",
"5 5 5 9 4 - e : w pX;XpXpXdXvXpX;XoX> uXt.,XZ g.lXxX .! LX/ BX`.'.`.P #.uX#.R ..Y.f f.JXDX*XnX>X&.X.-.:.:.6.&.X.&.;.;.:.*.' _ E ",
"4 3 5 5 5 - & ; sXn.fX4X:X6X%XfXOXu.  u.L.o u.h.4X0X~ ^ tXFX@.ZX}.`.`.J ..!  .9.JXlXJXDXnXkXmXNX;.z.+.<.+.o.-.&.;.z.z.&.B _ Q O.",
"= 2 2 4 3 * % * dX>X2X;Xn.u.gX;Xn.t.& 2 X.: fXfXZX:X` m rXW l.) ^ P  .~ P ^ @.P.ZXSXmXJX[.pXDXbX;.*.6.+.;.*.;.,.z.&.*.;.X.*.` E ",
"= * = 2 2 = = * pX-X5X#Xu.#Xt.;Xr.q.e e ( R.+XvXMXlXL.L T.$.rXI...../ %.%.E.E.wXnXcXwXAX6 t A -.;.:.3.x.;.S.;.z.;.Z.;.,.5.O.=.I ",
"* * = 2 2 2 2 - 5X6Xf.&Xy.7XqXt.Z # . ~ k.u.MX7XfX8XMXT T hXH T.R 9.gXKXiXkX(.+.A w.f.$XHXAXSX,.:.X.6.&.,.;.;.,.z.;.F.,._ =.] ` ",
"* = * = 2 2 = 2 :X4X2X:Xu.-X2X7Xw.  t B ..: >XMX}.6XlXjX! ! jXT ..[.ZXzXnX2.fXa 2 0X1X].qXCXkXkX<.-.,.:.<.,.<.z.<.,.;.:.:.` O.` ",
"* 2 = * 2 = * = * %XsXy.@X*X-X6Xw.; ~ r  .2 p.w.&X2XkXjX^ n ..D T wX9XPXKX>.zXg.1X#X:X[.xXcXZX5X;.z.=.V.6.1.6.,.1.,.Z.z.:.-.6.' ",
"- ; = 2 * * = * & * &Xr.#X@X&X-XF L v p m i O p.-X2X3XjX/ u L ^  .CX8X-X9XVXbX[.8X2XfXvX{.mXDXxX,.*.6.;.k.,.,.x.S.z.Z.6.:.-.=.` ",
"= = 2 2 2 = * * % $ O u.u.+X#X].].9 * 0 m.0 ; q.].4X3X~ ) U ..R  .JXqX[.PX8X9X1.$XBXNXgXqXnXSXvX,.,.,.:.,.,.z.V.Z.k.;.Z.Z.-.2.` ",
"2 2 2 2 = * * * & + O > e.u.#XXX$X% 2 - 6 M.p % e.@XpXj U ~ ! %.#.cXcXPXgXCX0X$.P pXSXBXVXnXSXH.Z.z.7.k.5.l.<.k.B.C.H.F.3.4.d.W ",
"2 2 = = = * * * $ + X o u.+X+X).).: n.Z # 6 j.z - % 5 8 l ~ $.{ 9.C zXR.nXwXP.9.&.bXBXJXCXnXnXk.,.;.,.5.k.Z.k.V.V.G.<.V.;.7.3.O.",
"= = = = = * * * & $ @ X u.u.y.@Xe.i.xXjX%X5 + 2 9 6 4 a i $.8.X S ;.k.D cXnXd.%.3.VXVXJXCXAXnXk.,.S.7.F.<.;.V.C.x.k.Z.S.C.<.c.-.",
"= = = = = * * * & $ + O o XX&X-Xe.].zXBXZXJ ; % 3 K w 8 a ..%.rXyXe LXBXJXxX4.2.8.4.SXBXvXCXBXV.Z.,.,.;.z.,.V.N.B.K.U.C.A.6.5.3.",
"2 = = = = = * * * * $ O # %XXX@Xe.{.bXSX2X#X* r & 5 h 8 v  .b.M.tXuXX.cXdX1X;.5.2.5.1.9XVXbXv.5.,.;.V.<.k.<.C.F.H.G.C.G.<.Z.:.*.",
"2 2 = = = = = = - ; % + > %X@X7Xu.].mXSX@X:X%X5 u = p R.#.g j 9 FXiXJXCX=XfX+.>.a.7.6 -X| 5.1.Z.,.F.;.F.a.1.Z.<.A.U.K.C.~.K.>.:.",
"2 = = = 2 2 2 2 2 * * # y.@XXX2X2Xp.DXHX5X6XOXn.$ = J w R.a.#.6.7 S.bX3XxXgX3.2.2.>.h.8XeXz.A.l.Z.x.V.Z.V.V.V.S.H.G.H.C.Z.z.5.7.",
"= = = = = = = 2 = 2 ; > u.#XbX6X9Xf.bX5X7X$X;XaXUX0 * m.H R.%./ ^ gXCXNXNXBX4.7.+.,.6XxXqXc.5.6.z.k.k.N.x.C.S.D.S.S.k.D.S.<.Z.-.",
"= = = = = = = 2 2 * ; r.r.q.8X5XzXbXxXA -X>XlXdXC y @ h Z b.hX! A.BXVXgXDX9.$.' 6.s 5XBXqXNX5.k.Z.x.C.F.G.x.G.k.G.H.U.J.W.S.6.:.",
"= = = = = = = = = = % q.y.u.4X5XlXBX/ p y n.#Xw ! =XXXt 6 m.@.tXA.sXbXdX5.$.%.3.>.v 7XbXVXKX7.z.,.Z.D.C.Y.N.D.H.H.G.U.E.H.J.C.3.",
"= = = = = = * * * % + q.y.u.;XqXqX1X5 2 % f.q.y =X[ f.-Xc r FXx.DXW.2.4.-.3.$.:.2.&.NXZXcXSXa.k.z.C.S.Q.V.Q.C.U.J.H.H.Q.H.J.F.1.",
"= = = = = = * * $ + O r.oX%XoXcXvX7 & 6Xy.t.e.eXxXmX0Xt.*Xk T I.SX^.2.] >.O.$.c.x.c.1XVXDXE.F.N.F.S.G.k.H.Y.D.!.H.J.H.H.U.G.G.c.",
"* = = 2 2 = = = & O O y.:X;XaXoXfXq > +Xu.< i.nXSXeX| L.P.6 +.4.DX3.3.=.%.+.2.=.5.c.x.J.7.N.7.H.V.C.D.J.T.G.U.H.!.H.!.G.!.H.F.Z.",
"* = 2 2 2 2 2 2 * $ X n.oX3XaXdX5X7 OX@Xq.q.g.DXSXnXwXu.g.$XD A CX8.9.1.+.=.$.$.c.$.F.A.;.F.A.A.C.U.J.E.J.D.J.W.Q.U./.~./.W.H.;.",
"* * = 2 2 2 2 2 3 % & t.;X3XzXvXNXz n.+XoXw.e.mXDXVXmXg.f.&X9XBXfXO.:.X.4.2.2.5.<.5.:.7.F.c.V.B.N.N.H.J.U.J.W.U.B.^.H.E.~.E.W.S.",
"* = 2 2 2 3 2 2 9 2 3 u.6XdXzXfXBXc ; sX2Xi.w.AXnXnXzX| L.=X-XgX2.2.=.4.+.3.2.7.4.4.c.7.J.A.Z.S.C.H.H.Q.H.W.U.Q.U.W./.!.!.!.Q.H.",
"* = 2 2 2 2 2 2 0 3 3 $XxX;XvXNXNX..a lXXXu.*XKXxXnXVXE 1XxX7XY.2.=.4.O.=.] c.4.A.3.A.7.7.A.F.S.J.G.H.D.!.W.Q.!.!.Q.^./.E./.W.U.",
"= 2 2 2 2 2 2 2 3 3 u 7 q g k T ^ +.] u.nX&X5XDXmX8XnX$.+.$.$.+.4.$.:.W 2.7.4.7.4.7.c.A.A.J.F.S.G.J.G.!.H.Q.W.Q.Q.Q./.~.!./.!.W.",
"= 2 2 2 2 2 2 3 7 3 8 8 p f f E Q j ] ] bXdXnXVXcXqX8X=.:.) | ] +.=.+.A.=.c.-.3.c.c.F.A.Z.J.V.H.G.J.Q.Q.~.E.!.~.^.~.<X~.<X~./.^.",
"= = 2 2 2 3 3 3 3 q 8 0 p f E g j ] ) T ( $.:XcXdX8X9X0.{ $.) 3.9.3.3.` 7.3.5.c.c.A.Z.F.A.F.!.W.J.W.H.^.E.~.E.!.~././.<X<X(.~.~.",
"= = 2 2 2 3 3 3 7 3 8 7 8 h h _ W _ ( .._ Q W 0X=X=X9X] Q $.=.*.4.$.5.2.5.A.8.7.7.A.F.F.J.J.G.U.W.W.W.~.~.^.~.~.~.<X/.<X<X(././.",
"= = = 2 2 3 3 7 7 8 8 8 u h L L R E T +.K $.( } -X=X} +.v.$.0.$.] 7.4.7.7.c.Z.A.6.F.K.F.J.J.U.Q.W.!././.<X/././.<X/.iX/.<X/.<X<X",
"= = = 2 2 3 7 7 8 u 7 7 u h W E ~ n W g Y ^  .] #.] | $.] 2.+.l.3.4.5.5.c.7.7.A.F.F.J.J.Z.J.W.J.W.!.W./.~./.(.~./.E.iX~.(./.~.~."
};
