/* XPM */
static char *_924b11a6ccf4becc39959e544aeb5c392WjjDAjXqiQGise[] = {
/* columns rows colors chars-per-pixel */
"64 64 256 2 ",
"   c #652124",
".  c #041D4D",
"X  c #00274E",
"o  c #02245B",
"O  c #012957",
"+  c #03365D",
"@  c #172D58",
"#  c #022C64",
"$  c #012C6B",
"%  c #072864",
"&  c #132D6A",
"*  c #013363",
"=  c #01346C",
"-  c #0A3868",
";  c #16376A",
":  c #002574",
">  c #012D74",
",  c #00267B",
"<  c #012B7D",
"1  c #023373",
"2  c #013B74",
"3  c #0B3B76",
"4  c #02337C",
"5  c #0A347C",
"6  c #023C7C",
"7  c #0C3C7B",
"8  c #0B3575",
"9  c #143978",
"0  c #253677",
"q  c #001F62",
"w  c #7D3158",
"e  c #03437C",
"r  c #094478",
"t  c #154578",
"y  c #0F496F",
"u  c #2B4C75",
"i  c #1B556E",
"p  c #484A73",
"a  c #566170",
"s  c #931F14",
"d  c #B41A1B",
"f  c #B82419",
"g  c #B51525",
"h  c #B72732",
"j  c #A9222B",
"k  c #962230",
"l  c #CC0E1C",
"z  c #CB2A2C",
"x  c #C32816",
"c  c #8D2F41",
"v  c #B57366",
"b  c #B04759",
"n  c #CD6659",
"m  c #012E84",
"M  c #032E8B",
"N  c #052B82",
"B  c #033186",
"V  c #0A3585",
"C  c #023C83",
"Z  c #0B3B84",
"A  c #04338A",
"S  c #09358C",
"D  c #033B8C",
"F  c #0B3B8C",
"G  c #133E8A",
"H  c #052C96",
"J  c #023591",
"K  c #023C93",
"L  c #0C3B92",
"P  c #093996",
"I  c #123D92",
"U  c #293A85",
"Y  c #151C86",
"T  c #044383",
"R  c #0B4384",
"E  c #024984",
"W  c #03438C",
"Q  c #0B438B",
"!  c #034B8D",
"~  c #0B4D8C",
"^  c #0B4B84",
"/  c #134486",
"(  c #13448B",
")  c #144D8D",
"_  c #174A84",
"`  c #06558C",
"'  c #1C558C",
"]  c #14558A",
"[  c #034394",
"{  c #0A4394",
"}  c #024B94",
"|  c #0C4C94",
" . c #03439B",
".. c #024A9B",
"X. c #0B4B9A",
"o. c #0B439B",
"O. c #124394",
"+. c #134993",
"@. c #14459A",
"#. c #124C9B",
"$. c #1B4D9D",
"%. c #1B4A95",
"&. c #025394",
"*. c #0C5394",
"=. c #03529B",
"-. c #0C539C",
";. c #0B5A9D",
":. c #055B99",
">. c #135394",
",. c #14559B",
"<. c #1B539B",
"1. c #135B9C",
"2. c #1C5C9C",
"3. c #185A95",
"4. c #28558A",
"5. c #214F98",
"6. c #26589A",
"7. c #355A96",
"8. c #254C8B",
"9. c #08639A",
"0. c #19669A",
"q. c #126786",
"w. c #26659C",
"e. c #306892",
"r. c #034BA3",
"t. c #074AA6",
"y. c #1D4CA1",
"u. c #134DA3",
"i. c #0354A3",
"p. c #025BA3",
"a. c #0858A9",
"s. c #1354A5",
"d. c #135CA9",
"f. c #1958A5",
"g. c #055AB4",
"h. c #175BB3",
"j. c #2759A8",
"k. c #2956AD",
"l. c #0164AB",
"z. c #0965A7",
"x. c #1B62AB",
"c. c #1767A7",
"v. c #0872AE",
"b. c #1A73AA",
"n. c #0766B7",
"m. c #1767B4",
"M. c #0775B9",
"N. c #1676B7",
"B. c #2563A4",
"V. c #236BA5",
"C. c #2464AC",
"Z. c #256CAC",
"A. c #2C6BAB",
"S. c #2B66A7",
"D. c #346BAA",
"F. c #2772AB",
"G. c #3A75AA",
"H. c #296BB6",
"J. c #3569B5",
"K. c #2372B5",
"L. c #2C74B4",
"P. c #257CBD",
"I. c #2777B9",
"U. c #337BB3",
"Y. c #347BBB",
"T. c #3876B7",
"R. c #4B6A9B",
"E. c #447AB8",
"W. c #4D6DAD",
"Q. c #6B5995",
"!. c #0775C8",
"~. c #1776C2",
"^. c #0370CB",
"/. c #2979C5",
"(. c #3979C3",
"). c #2973D4",
"_. c #1B6BD4",
"`. c #477AC7",
"'. c #497FD4",
"]. c #ED7C86",
"[. c #188ABA",
"{. c #3A84AC",
"}. c #2683BA",
"|. c #3784B8",
" X c #3A9BB5",
".X c #4889BA",
"XX c #538BB7",
"oX c #7299BA",
"OX c #6093A2",
"+X c #1885C6",
"@X c #0D90D7",
"#X c #2986C7",
"$X c #3C83C4",
"%X c #3D8CCC",
"&X c #3586C8",
"*X c #2995D5",
"=X c #3A94D7",
"-X c #3490CE",
";X c #33A5D3",
":X c #0E8EE3",
">X c #0CAAEC",
",X c #32ABE9",
"<X c #1B9ADE",
"1X c #4789C8",
"2X c #4B95C7",
"3X c #5596CA",
"4X c #4A8AD4",
"5X c #568AD8",
"6X c #4B96D7",
"7X c #5897D6",
"8X c #5387C5",
"9X c #6A97CB",
"0X c #4BA2DB",
"qX c #58A7DA",
"wX c #5BA7CB",
"eX c #69A6C6",
"rX c #79B5DB",
"tX c #6BA7D6",
"yX c #589AE5",
"uX c #4E99EB",
"iX c #659BE7",
"pX c #4BA7E8",
"aX c #54AFEC",
"sX c #68A7E5",
"dX c #65B4E9",
"fX c #76B4ED",
"gX c #5BCBF8",
"hX c #71C9F5",
"jX c #88949D",
"kX c #A99DA5",
"lX c #D18A83",
"zX c #EA9C91",
"xX c #8BACD9",
"cX c #85BAEF",
"vX c #B3BAD7",
"bX c #ACC5D4",
"nX c #8AC6FA",
"mX c #8ECCF3",
"MX c #AACFF2",
"NX c #ADEAFE",
"BX c #A1D1DB",
"VX c #F8D7D2",
"CX c #E7ECDE",
"ZX c #DBDCEC",
"AX c #EADAEA",
"SX c #D9E6F8",
"DX c #DBF4FD",
"FX c #D0EEF1",
"GX c #F6FEED",
"HX c #FDEAFA",
"JX c #ECFEFE",
"KX c #E9F8FA",
"LX c #F3FEFF",
"PX c #F8F8F8",
"IX c #F3EBE5",
"UX c #C2D1D6",
/* pixels */
"B B B B B B B B B m B A B A B B B B A m A A m B m B m A B A A S B B B B A m A M B m A m B S m B B A m B B B A m B m B m A A m A ",
"B B B B B B B B S A B m m B B A B B B A M m F m A A A A B B A A A A A S m S S S m m L m S m m B m A A A B m B B B A A B m B A A ",
"B B B B B B B B m m S m A B m B A B m A S A m B @.B A A D B F B B L B J K A m S B m m m m B < S B B m B A A B m m m A A m B S m ",
"B B B B B B B B m I , S B m A B M A A m B A m `.5X{ K B D L y.@.B P A J P B A A L S m A B B < V B B S A B m m A A B m A A B A m ",
"B B B B B B B B B < B < F B B B M B B < A A B `.yXD K D K K K A K J P J m L L B B m F B G : 4 4 F B A B B A m B A S m m A m m A ",
"B B B B B B B B j.m O.: F B m B B B < B F D A A (.D D K K K K { [ K [ K A o.4 C F F F V Z > > > L m B m m B B S m B A m A A m A ",
"B B B B B B B B 5XJ.4 Z , < S A B B C C B B { D C ,.D K K K K [ [ K K K { W <.4 <.6.7 / 1 8 $ > B B F B 4 Z ( 6.y.m A A B A m B ",
"B B B B B B B B 4XD %., V V m m B B Q C D A A L C 1X{ K  . .K  . .K  .[ D C fX1 1 R 1 3 $ 1 8 7 Q 4 4 4 ) B.6.D.5XA m A m B m S ",
"A m A m A B A m 4XD B V V , B A C D Z = A A D u.C 7X{ [ K r. . .r. .{  .K F.U.) 4 Z - X 7.4 / + 1 C +./ ' 6.J.fX< B m B A A B A ",
"M B S A m m B m `.(.O.j.B A B B S B { <.C { B j.C H.L u...[ r. .t. .r.r.t.Y.e T *.7 ; - # G $ # 2 ) D W S.G.nXQ A m A A m B m B ",
"B B B A B A A m (.4 (.j.j.f.{ D V 1 W s.C T { C [ [ u.K ..r...i.t.r.r.t.} ) 2 } C._ o t 7 8 $ = 2 ^ ,.H.A.rXXX< F S m m A A A B ",
"A B m A B L F B 4 F 4 f.W H.C.W G 9X- F | *.C D T.| (.r.i.g.i.r.t.r.t.h.z.6 ~ } R # - = 8 % # E ~ 1XL.L.nXnX1 A , F A m L B m m ",
"B B B A B F F F 5 4 %.O.A.>.5X<.C _ MXX / f.W { nXB.yXg.g.n.g.g.g.g.g.p.| E ! c.8.O - 7 $ o 3 ! `.<..XrXcX> m < O.m @.< A m m F ",
"B m m B m A B B > 5 4 J.4 `.T.B.W P 7.BXX Q C 2 .X] H.m.n.^.n.g.n.n.g.l.C c.! ) % = _ = % # _ &X<.T.cXcXXXB M < B @.y.5X@.A A m ",
"A m B B A B B < V < , , J.Z T.2.s.u.{ G.9X* >.! E sX= T K.n.!.!.^.!.m.;.T } B._ # *.` $ % 9 T.<.E.cXnXXX1 < I m k., A m m B B A ",
"B S @.L S m A B m m S N B J.C T A 0.z.r.8Xu / r.! sX3 9 # &X,X^.^.^.~.6 v.X.6.O - c.=.5 R.R.<.`.rXcX4.B S ( 5 N m S B B L m A m ",
"B V < %.6.F B B B +.| C y.B ( 6 4.R h.3.X.eX# H.D $X` & 8 *XgX:X@X:XX 4 ` S.w.X a.c.e 3 W.6.U.qXsX+.> % 0 X $ B m m V M B m m V ",
"m A B 4 4 J.j.F N J.| | Q 1 = - 0X|...0.i.&.7XW 6 7 tXu - 0.wX@X:X<X- Z 9.D.o e.Y.e ] 7XA.J.T e ] # 9 o . ; 1 J.4XW y.f.#.{ k.m ",
"J m A B , Z F C S B s.x.| E r * 7XU.L.e p.:.F.&Xr * qXo / 0.Y.>X:Xp.- $ 1XG.6.Y.e ] 3X0.%X&.6 9 ; + % & % 7.7XI.z.;.1.(.H.<.B B ",
"M A m B L < S A m D =.m./.m.C E * X.c.7 - - & 6.Z & 2 t 1 e.- [.,X- y y w.+ w.p.^ .X] 2X! ! 9 9 . o # 6.7XY.v.v./.K.:.C C C < B ",
"B F m m m S m A @.B s.[ i.m.| B.5 B 2.xXLXKXLXu LXGXGXJXKXKXKXJX- HXPXKXDXPX9X<.D.0.|.*.T 5.# o 8 D.7XK.N.}.}.N.c.} } 1.#.B m A ",
"4 m m L A A A M B I L { #.6 2 + k.] < KXUXu KXjXKX0 0 i LXxX4.IXUXPXp p U PXy i w.Y.*.B.> % = ' 6X&XN.#X/.m.V.E C } c.[ L m S M ",
"B B m m A m < < < Z < @.F Q # - D ` sXGXZXbXLXkXGXPXJX; GXvXbXKXDXLXLXGXjXGXt {.' E.6.$ Z w.1X|.I.P.#XP.&.C 6 r 4 E } s.m L N m ",
"A m S A < Z > 9XV.C.j.u.J D Q 1 9 X.r GXZXCXvXDXbX& + Y PXSXDXoX@ ; @ LXoXPX4X|.rX# = / 2XY.#XP.%Xc.! E T R e e 7 R } { J M m B ",
"B B m S M m > T.Z.1XE B.B.j.Q | R.6 u JXu ).L.JXPXHXKXOXDXa a Q.KXPXHXJXjXDXwXy * r 1XB.6 1X1X;.} ! *.>.T 3.| ! D A N N S m B B ",
"S m A A N B E.4.6X1.Z.Z.~ Q A.>.8.6 6 9 D.E 6X- r R ; 9 ; w g j 0 0 = + @ r B.t tXU.;.} [ } &.;.1.*.1.f.~ C C | C.J.$.S , B A M ",
"m A m B V < 8Xr ! Y.6X6 6 ) A.6 / 0.x.u.,.` &.t.qXmXkXc   h l z h h b lXb XX;.qXe T ! K.x.c.F.F.~ 6 U.4X6X6X(.x.;.-.D B B F m M ",
"S B B B m V cX' C W (.E e 2 2 R r 2 6 ,.x.-.,.,.s.eXlXg f d f l z z n zX].vX[.r e 6 e 3X.XfXnXnXfXdXsX1XI.-.-.-.! W T.B A m m S ",
"M A F A N V , 5.C | C 6 ' r = 6 r 2 / ^ c.p.d.L.S.bXn h s j f x z n v lXzXw e.O.! F.tXNXNXMXhXqX%X;.x.K.K.K.c.C.+.j., F m B L m ",
"M M B B S m S A Q #.Q $ $ = 2 x.` ~ L.%X-X+X*X=X;XSXv k s k k ].HXGXKXHXPX  e.l.l.&XV.G.' 0.0.c.&.K.f.c.c.:.} C 5.I < V A B m S ",
"V S B C k.y.B A D { C Z ( 4 ! } c.m.d.! z.v.M.+X0.ZXVXAXVXIXCXIXHXGXHXHXGXIXeXaXpX=X#X&Xb.b.z.&.&.L.H.-.} d.C.y.m A V m m S B A ",
"< 4 `.4 Z A P K K K L C C C a.g.H./.P.E 1.:.N.*XhXFXCXZXCXZXHXSXKXJXKXKXGXKX X%X;X-X=XN.v.N.b.V.` V.C W X.B A M D B S m S m B S ",
"H # MX* P K W s.K.6X%X/.d.=.z.n.m.$X$X! p.l.v.[.1XmXMXSXSXFXFXSXe.sX1XwXxXR. XaXaXc.&.&X$XL.A.Z.B.,.D A L J S A A B A A m m B B ",
"4 N 4.FXyXiX1XQ m A ../.6Xd.-.C.4XyXI.&.9.v.#X0X{.NXoXW.7.; _ Z *.} d.$XfXt }.uX*.} >.C Q 6 C C | X.D P J A m B m A m M L A m B ",
"B H V - 4 J B C N S f.[ x.X.T.7XsXfX:.:.z.N.aXqXm.dX{.t 4.$ C r.-.a.g./.S.hX[.=X0XdXY.I.b.:.6 T s.X.K P J J S A A F F B m B S B ",
"H S M M B $.+.<.(.(.C C C ~ 1.e F.w.3.L.(.Z.6X|.eXrX{.6.( Z C [ o.&.z.H.' |.v.+X0X6XqX-Xv.l.;.>.[ D K K P B S m A < m A B B A m ",
"m 1 A k.5.- r D.^ 2.S.6 1 6 e ~ ' ' = = 6 2.~ 2XKXBXrX^ T #.{ ~ t.! b._ eX] n.+X=XaX6X=X+Xz.-.C C C { { { A L S B F A m A B m B ",
"F B m y.5.fXG.2 $ 7 R ^ T 1 / 5X$ 1 r ^ T e ~ V.{.3XtXXXy 3 Q C A <.3 7.{.` ..M.#Xz.N.#X*XN.z.X.| | } f.| X.D B < m m A S A m m ",
"N J J S < : +.! <.Q R 1 ) R Q ) ( R = ] e E &XgX;X-XU.t 9X8.( 6 ) U MXrX}.E X.p.l.N.l.N.l.p.=.a.s.d.s.(.(.L.Q 4 `.O.< A A m B F ",
"M 6 B m 1 7 A |...-.W <.T 6 U.9.W E = r r 6XpX,XhX$XC ' G.3XnXmXMXW.eXhXb.,.9 ! z.p.g.a.a.i.a...t.a.i./.$XY.<.| m O.I B B A B m ",
"B A m A m { D | ! C B 5.J.-.I.=./ e 2 :.sXdX;XuX%Xf.2.8._ #X&XG.q.dX$XgX=XF.` 9 m.a...p.b.1.i.g.a.r...x.V.U.A.C.A B A A B B B m ",
"A B m m F $.+.| F Z D.6 W C.| e 1 = Y.x.z.=X&XN.1XT.~ o U.gXP.V.tXdX6X-X0XL.b.S.Z c.z.a.m.#Xc.-.} d.[ x.-.E J.> A S A m B A B A ",
"B m F A y.y.+.B 9 1 T V.>.R = 3 6 T.E sXz.l./.N.T { ] O #Xv.b.b.3XdXP.#XsX1Xb.6 # = c.d.a.N.0X7X~ ,.H.H.f.f.4 B B L S m A B m B ",
"B m A , A B B m MX) f.-.2 * 3 W Z.6X~ sX,.=XM.r e F r . <X=.U.z.pXgX%X&.6XY.$XF.2 = 1 1.P./.x.qXqX1XY.A.1XJ.J.m < B S B B B m B ",
"A A A m m m N I XXe X.| 4.2 >./.&Xz.%XqX1.n.b.- ] B t 3 *X| ' X.<XgX4X9.I.1XB.V.P.= = 2 } (.H.|.qX3X7X2X3XD.`.J.F m B A B B B B ",
"m m m A B m N L U.dX4XZ B f.N.+X*X/.;.b.[.&X> r ,.C # = *XC 2 @.>X<XyXv.&.$X4 3Xz.P.6 5 1 ,.%XL.1X2X2XwX.XD.$.k.j.B m A m B F B ",
"S A B B B A m I K B > 4 +.} #X#X#X/.#X+XM.! 5 ` ..T # 6 N.>.] < :X@XaXz.! 6X) e &XP.I.C 6 6 | f.$X$X1X.XG.8XE.$.y.S B A B B A B ",
"m m A B B A m B M S , , >.9.N.N.m.! pX:Xn.! &.d.s.~ # 6 &.0.2 V ).@XpXP.( I.Y.B.%Xx.m.%X6 1 6 } ,.L.H.(.8X3X6.$ m m B A B m B B ",
"A B A m B B B B , m F = 0.E p.b.{ K [ r.r.-.,.x.E ( 7 ] 0.S.( D ~.M.~.=X| %.&Xm.} 4XK.! Z.> 4 E m././.~.~.P.1X8XB A m A m A B B ",
"B A S A B < F B A k.V 1 sXY.Y.! [ K o.K K m.I.7X>.6 / |.hXT C D n.l.n.pX*.> K.=X..(.I.#X&.O.j.:.v.+X~.M.M./.iXW.j.< F B B A m A ",
"B B m O.B < J.S m < 6.j.( A.>.D K A P K [ z.x.C.T.> 6 >.F.| Q C i.n.g.N.c.R 2.#Xs.{ yXm.=.B s.p.p.p.!.M.!.l.x.y.@.B m B m A B B ",
"B B B < F G F S B 5 6.G F 6.4 L K A o.K f.} f.D 1 1 C -.C.W 1XZ.z.s.h.i.%Xr = V.L.C D K.a.X.B a.#.h.a.n.l.n.i.X.B F m S B A B m ",
"B B S < O.F : m A > 5 : O.> 4 S P K u.[ #.D A.-.1 6 W { u.| C.D.nX#.t.i.%X7.o i Z.C D [ X.D K D { D X.[ [ B D B A < A m F B < S ",
"B m m L F < L m B C B B { Q F m S D ..| > 4 +.W 1 j...u.K X.W 2.nX| r.r...D.o * $XC Q B j.A A A C C J., N N I N $.L B A , m L m ",
"A B A < B < < S A m S J.j.< B L J A C Z.1 5 5 6 B s...K 4XC.x.1X$XD  .t.[ L.5 6 | #.A S L m A B 4 B F j.< N B D +.'.m m F S < B ",
"B A A B A B S M B M M Z < A M N A D C iX6.e 1 > L ..[ .. ...} 4X/.o.r.K C ! F K o.D P A B D D < B A 5XiXF B A B B @.m S m m A B ",
"B B B B B B B B B B B B B B B B A m D y.f.#.D D K K K [ K { L F X. .K K D Q L J K L A S m A A M m F I F B B B B < B A B m B A B ",
"B B B B B B B B B B B B B B B B m m m A D D A A K K K K K K L D { K K K C Z D J A K @.D B A M A m A S B m m B B A F L S A A A B ",
"B B B B B B B B B B B B B B B B B A A B B A D A D D K K K K K D D K K D B B S J A B @.A A A m A m B B m m B A m B A A B m B B m ",
"B B B B B B B B B B B B B B B B m A S B A S J J A A J J J K K K J J K K B B S S S m F m B A m A A A A B m A A A B B B B B A A B ",
"B B B B B B B B B B B B B B B B A B m m B A J J B A A J J J J A K J K K A A S A A A m m m A A B B A A B B B B B A A A B A A A m ",
"B B B B B B B B B B B B B B B B A B m A A A A A B A A A A A A A J A A A A A S B m S m A m B B B m B A A B B B B B B B m B B m m ",
"B B B B m B B B B B B B m B B B B m m A A M M M A A B B A A A A A B B A B A A B B B A A B B m B B B B B B B B A B B B B A A A A ",
"B B B B B B B B B B B B B B B B B B m m M B B B A A B B B B B B V B B B N M A B S m S m B A m A B B m m B B B m B B B B m m m B "
};
