/* XPM */
static char *a8fc0c748c604cf0f489d15d157c2cb0XfuANTRz1x0bXPBA[] = {
/* columns rows colors chars-per-pixel */
"64 64 4 1 ",
"  c #5D302E",
". c #884A3C",
"X c #BC6F50",
"o c #E49B6E",
/* pixels */
"................................................................",
"................................................................",
"................................................................",
"................................................................",
"...         o....         o....         o....        ...        ",
"... XX XX XXo.... XX XX XXo.... XX XX XXo.... XX XX X... XX XX X",
"... XX XX XXo.... XX XX XXo.... XX XX XXo.... XX XX X... XX XX X",
"... XX XX XXo.... XX XX XXo.... XX XX XXo.... XX XX X... XX XX X",
"... XX XX XXo.... XX XX XXo.... XX XX XXo.... XX XX X... XX XX X",
"... XX XX XXo.... XX XX XXo.... XX XX XXo.... XX XX X... XX XX X",
"... XX XX XXo.... XX XX XXo.... XX XX XXo.... XX XX X... XX XX X",
"... XX XX XXo.... XX XX XXo.... XX XX XXo.... XX XX X... XX XX X",
"... XX XX XXo.... XX XX XXo.... XX XX XXo.... XX XX X... XX XX X",
"... ooooooooo.... ooooooooo.... ooooooooo.... ooooooo... ooooooo",
"................................................................",
"................................................................",
"................................................................",
"................................................................",
"................................................................",
"...         o....         o....         o....        ...        ",
"... XX XX XXo.... XX XX XXo.... XX XX XXo.... XX XX X... XX XX X",
"... XX XX XXo.... XX XX XXo.... XX XX XXo.... XX XX X... XX XX X",
"... XX XX XXo.... XX XX XXo.... XX XX XXo.... XX XX X... XX XX X",
"... XX XX XXo.... XX XX XXo.... XX XX XXo.... XX XX X... XX XX X",
"... XX XX XXo.... XX XX XXo.... XX XX XXo.... XX XX X... XX XX X",
"... XX XX XXo.... XX XX XXo.... XX XX XXo.... XX XX X... XX XX X",
"... XX XX XXo.... XX XX XXo.... XX XX XXo.... XX XX X... XX XX X",
"... XX XX XXo.... XX XX XXo.... XX XX XXo.... XX XX X... XX XX X",
"... ooooooooo.... ooooooooo.... ooooooooo.... ooooooo... ooooooo",
"................................................................",
"................................................................",
"................................................................",
"................................................................",
"................................................................",
"................................................................",
"................................................................",
"...         o....         o....         o....        ...        ",
"... XX XX XXo.... XX XX XXo.... XX XX XXo.... XX XX X... XX XX X",
"... XX XX XXo.... XX XX XXo.... XX XX XXo.... XX XX X... XX XX X",
"... XX XX XXo.... XX XX XXo.... XX XX XXo.... XX XX X... XX XX X",
"... XX XX XXo.... XX XX XXo.... XX XX XXo.... XX XX X... XX XX X",
"... XX XX XXo.... XX XX XXo.... XX XX XXo.... XX XX X... XX XX X",
"... XX XX XXo.... XX XX XXo.... XX XX XXo.... XX XX X... XX XX X",
"... XX XX XXo.... XX XX XXo.... XX XX XXo.... XX XX X... XX XX X",
"... XX XX XXo.... XX XX XXo.... XX XX XXo.... XX XX X... XX XX X",
"... ooooooooo.... ooooooooo.... ooooooooo.... ooooooo... ooooooo",
"................................................................",
"................................................................",
"................................................................",
"................................................................",
"................................................................",
"...         o....         o....         o....        ...        ",
"... XX XX XXo.... XX XX XXo.... XX XX XXo.... XX XX X... XX XX X",
"... XX XX XXo.... XX XX XXo.... XX XX XXo.... XX XX X... XX XX X",
"... XX XX XXo.... XX XX XXo.... XX XX XXo.... XX XX X... XX XX X",
"... XX XX XXo.... XX XX XXo.... XX XX XXo.... XX XX X... XX XX X",
"... XX XX XXo.... XX XX XXo.... XX XX XXo.... XX XX X... XX XX X",
"... XX XX XXo.... XX XX XXo.... XX XX XXo.... XX XX X... XX XX X",
"... XX XX XXo.... XX XX XXo.... XX XX XXo.... XX XX X... XX XX X",
"... XX XX XXo.... XX XX XXo.... XX XX XXo.... XX XX X... XX XX X",
"... ooooooooo.... ooooooooo.... ooooooooo.... ooooooo... ooooooo",
"................................................................",
"................................................................",
"................................................................"
};
