/* XPM */
static char *_d8a0a230bb34001c44e7130fec78595ezGFlqCLzMY80xuU[] = {
/* columns rows colors chars-per-pixel */
"64 64 3 1 ",
"  c #097D1C",
". c #4FAC57",
"X c #CBD94E",
/* pixels */
"................................................................",
"................................................................",
"................................................................",
"................................................................",
"...         X...         X...         X...         X...         ",
"... .. .. ..X... .. .. ..X... .. .. ..X... .. .. ..X... .. .. ..",
"... .. .. ..X... .. .. ..X... .. .. ..X... .. .. ..X... .. .. ..",
"... .. .. ..X... .. .. ..X... .. .. ..X... .. .. ..X... .. .. ..",
"... .. .. ..X... .. .. ..X... .. .. ..X... .. .. ..X... .. .. ..",
"... .. .. ..X... .. .. ..X... .. .. ..X... .. .. ..X... .. .. ..",
"... .. .. ..X... .. .. ..X... .. .. ..X... .. .. ..X... .. .. ..",
"... .. .. ..X... .. .. ..X... .. .. ..X... .. .. ..X... .. .. ..",
"... .. .. ..X... .. .. ..X... .. .. ..X... .. .. ..X... .. .. ..",
"... XXXXXXXXX... XXXXXXXXX... XXXXXXXXX... XXXXXXXXX... XXXXXXXX",
"................................................................",
"................................................................",
"................................................................",
"................................................................",
"................................................................",
"...         X...         X...         X...         X...         ",
"... .. .. ..X... .. .. ..X... .. .. ..X... .. .. ..X... .. .. ..",
"... .. .. ..X... .. .. ..X... .. .. ..X... .. .. ..X... .. .. ..",
"... .. .. ..X... .. .. ..X... .. .. ..X... .. .. ..X... .. .. ..",
"... .. .. ..X... .. .. ..X... .. .. ..X... .. .. ..X... .. .. ..",
"... .. .. ..X... .. .. ..X... .. .. ..X... .. .. ..X... .. .. ..",
"... .. .. ..X... .. .. ..X... .. .. ..X... .. .. ..X... .. .. ..",
"... .. .. ..X... .. .. ..X... .. .. ..X... .. .. ..X... .. .. ..",
"... .. .. ..X... .. .. ..X... .. .. ..X... .. .. ..X... .. .. ..",
"... XXXXXXXXX... XXXXXXXXX... XXXXXXXXX... XXXXXXXXX... XXXXXXXX",
"................................................................",
"................................................................",
"................................................................",
"................................................................",
"................................................................",
"................................................................",
"................................................................",
"...         X...         X...         X...         X...         ",
"... .. .. ..X... .. .. ..X... .. .. ..X... .. .. ..X... .. .. ..",
"... .. .. ..X... .. .. ..X... .. .. ..X... .. .. ..X... .. .. ..",
"... .. .. ..X... .. .. ..X... .. .. ..X... .. .. ..X... .. .. ..",
"... .. .. ..X... .. .. ..X... .. .. ..X... .. .. ..X... .. .. ..",
"... .. .. ..X... .. .. ..X... .. .. ..X... .. .. ..X... .. .. ..",
"... .. .. ..X... .. .. ..X... .. .. ..X... .. .. ..X... .. .. ..",
"... .. .. ..X... .. .. ..X... .. .. ..X... .. .. ..X... .. .. ..",
"... .. .. ..X... .. .. ..X... .. .. ..X... .. .. ..X... .. .. ..",
"... XXXXXXXXX... XXXXXXXXX... XXXXXXXXX... XXXXXXXXX... XXXXXXXX",
"................................................................",
"................................................................",
"................................................................",
"................................................................",
"................................................................",
"...         X...         X...         X...         X...         ",
"... .. .. ..X... .. .. ..X... .. .. ..X... .. .. ..X... .. .. ..",
"... .. .. ..X... .. .. ..X... .. .. ..X... .. .. ..X... .. .. ..",
"... .. .. ..X... .. .. ..X... .. .. ..X... .. .. ..X... .. .. ..",
"... .. .. ..X... .. .. ..X... .. .. ..X... .. .. ..X... .. .. ..",
"... .. .. ..X... .. .. ..X... .. .. ..X... .. .. ..X... .. .. ..",
"... .. .. ..X... .. .. ..X... .. .. ..X... .. .. ..X... .. .. ..",
"... .. .. ..X... .. .. ..X... .. .. ..X... .. .. ..X... .. .. ..",
"... .. .. ..X... .. .. ..X... .. .. ..X... .. .. ..X... .. .. ..",
"... XXXXXXXXX... XXXXXXXXX... XXXXXXXXX... XXXXXXXXX... XXXXXXXX",
"................................................................",
"................................................................",
"................................................................"
};
